<svg xmlns="http://www.w3.org/2000/svg" xmlns:xlink="http://www.w3.org/1999/xlink" version="1.1" width="1000" height="1000" viewBox="0 0 1000 1000" xml:space="preserve">
<desc>Created with Fabric.js 3.5.0</desc>
<defs>
</defs>
<rect x="0" y="0" width="100%" height="100%" fill="none"/>
<g transform="matrix(1.2534 0 0 1.2534 501.36 501.36)" id="576562">
<g style="" vector-effect="non-scaling-stroke">
		<g transform="matrix(12.5 0 0 12.5 -251.25 0)">
<path style="stroke: none; stroke-width: 1; stroke-dasharray: none; stroke-linecap: butt; stroke-dashoffset: 0; stroke-linejoin: miter; stroke-miterlimit: 4; is-custom-font: none; font-file-url: none; fill: rgb(66,139,193); fill-rule: nonzero; opacity: 1;" transform=" translate(-11.9, -32)" d="M 1.9 32 c 0 13.1 8.4 24.2 20 28.3 V 3.7 C 10.3 7.8 1.9 18.9 1.9 32 z" stroke-linecap="round"/>
</g>
		<g transform="matrix(12.5 0 0 12.5 248.75 0)">
<path style="stroke: none; stroke-width: 1; stroke-dasharray: none; stroke-linecap: butt; stroke-dashoffset: 0; stroke-linejoin: miter; stroke-miterlimit: 4; is-custom-font: none; font-file-url: none; fill: rgb(237,76,92); fill-rule: nonzero; opacity: 1;" transform=" translate(-51.9, -32)" d="M 61.9 32 c 0 -13.1 -8.3 -24.2 -20 -28.3 v 56.6 c 11.7 -4.1 20 -15.2 20 -28.3" stroke-linecap="round"/>
</g>
		<g transform="matrix(12.5 0 0 12.5 -1.25 0)">
<path style="stroke: none; stroke-width: 1; stroke-dasharray: none; stroke-linecap: butt; stroke-dashoffset: 0; stroke-linejoin: miter; stroke-miterlimit: 4; is-custom-font: none; font-file-url: none; fill: rgb(255,255,255); fill-rule: nonzero; opacity: 1;" transform=" translate(-31.9, -32)" d="M 21.9 60.3 c 3.1 1.1 6.5 1.7 10 1.7 s 6.9 -0.6 10 -1.7 V 3.7 C 38.8 2.6 35.5 2 31.9 2 s -6.9 0.6 -10 1.7 v 56.6" stroke-linecap="round"/>
</g>
</g>
</g>
</svg>